<mxfile host="app.diagrams.net" agent="Mozilla/5.0 (Windows NT 10.0; Win64; x64) AppleWebKit/537.36 (KHTML, like Gecko) Chrome/138.0.0.0 Safari/537.36" version="28.0.7">
  <diagram name="Página-1" id="JhZTsb_DySSi7lP2PZhg">
    <mxGraphModel dx="1358" dy="740" grid="1" gridSize="10" guides="1" tooltips="1" connect="1" arrows="1" fold="1" page="1" pageScale="1" pageWidth="4681" pageHeight="3300" math="0" shadow="0">
      <root>
        <mxCell id="0" />
        <mxCell id="1" parent="0" />
        <mxCell id="Vmo0kVv--W6r2WOHqqZs-3" style="edgeStyle=orthogonalEdgeStyle;rounded=0;orthogonalLoop=1;jettySize=auto;html=1;entryX=0;entryY=0.5;entryDx=0;entryDy=0;" edge="1" parent="1" source="Vmo0kVv--W6r2WOHqqZs-1" target="Vmo0kVv--W6r2WOHqqZs-2">
          <mxGeometry relative="1" as="geometry" />
        </mxCell>
        <mxCell id="Vmo0kVv--W6r2WOHqqZs-1" value="Condição&lt;div&gt;Pra entrar no resgate&lt;/div&gt;" style="rounded=1;whiteSpace=wrap;html=1;" vertex="1" parent="1">
          <mxGeometry x="30" y="384" width="90" height="66" as="geometry" />
        </mxCell>
        <mxCell id="Vmo0kVv--W6r2WOHqqZs-6" style="edgeStyle=orthogonalEdgeStyle;rounded=0;orthogonalLoop=1;jettySize=auto;html=1;entryX=0.5;entryY=0;entryDx=0;entryDy=0;" edge="1" parent="1" source="Vmo0kVv--W6r2WOHqqZs-2" target="Vmo0kVv--W6r2WOHqqZs-4">
          <mxGeometry relative="1" as="geometry" />
        </mxCell>
        <mxCell id="Vmo0kVv--W6r2WOHqqZs-2" value="Sensores de linha:&lt;br&gt;11111" style="rounded=1;whiteSpace=wrap;html=1;" vertex="1" parent="1">
          <mxGeometry x="160" y="310" width="120" height="60" as="geometry" />
        </mxCell>
        <mxCell id="Vmo0kVv--W6r2WOHqqZs-8" style="edgeStyle=orthogonalEdgeStyle;rounded=0;orthogonalLoop=1;jettySize=auto;html=1;entryX=0.5;entryY=0;entryDx=0;entryDy=0;" edge="1" parent="1" source="Vmo0kVv--W6r2WOHqqZs-4" target="Vmo0kVv--W6r2WOHqqZs-7">
          <mxGeometry relative="1" as="geometry" />
        </mxCell>
        <mxCell id="Vmo0kVv--W6r2WOHqqZs-4" value="Sensores de Cor detectam cinza" style="rounded=1;whiteSpace=wrap;html=1;" vertex="1" parent="1">
          <mxGeometry x="160" y="390" width="120" height="60" as="geometry" />
        </mxCell>
        <mxCell id="Vmo0kVv--W6r2WOHqqZs-10" style="edgeStyle=orthogonalEdgeStyle;rounded=0;orthogonalLoop=1;jettySize=auto;html=1;entryX=0;entryY=0.5;entryDx=0;entryDy=0;" edge="1" parent="1" source="Vmo0kVv--W6r2WOHqqZs-7" target="Vmo0kVv--W6r2WOHqqZs-9">
          <mxGeometry relative="1" as="geometry" />
        </mxCell>
        <mxCell id="Vmo0kVv--W6r2WOHqqZs-7" value="Infra-Vemelhos laterais, distância &amp;lt; 45" style="rounded=1;whiteSpace=wrap;html=1;" vertex="1" parent="1">
          <mxGeometry x="160" y="470" width="120" height="60" as="geometry" />
        </mxCell>
        <mxCell id="Vmo0kVv--W6r2WOHqqZs-17" style="edgeStyle=orthogonalEdgeStyle;rounded=0;orthogonalLoop=1;jettySize=auto;html=1;entryX=0;entryY=0.5;entryDx=0;entryDy=0;" edge="1" parent="1" source="Vmo0kVv--W6r2WOHqqZs-9" target="Vmo0kVv--W6r2WOHqqZs-13">
          <mxGeometry relative="1" as="geometry">
            <Array as="points">
              <mxPoint x="480" y="420" />
              <mxPoint x="480" y="339" />
            </Array>
          </mxGeometry>
        </mxCell>
        <mxCell id="Vmo0kVv--W6r2WOHqqZs-18" style="edgeStyle=orthogonalEdgeStyle;rounded=0;orthogonalLoop=1;jettySize=auto;html=1;exitX=1;exitY=0.5;exitDx=0;exitDy=0;entryX=0;entryY=0.5;entryDx=0;entryDy=0;" edge="1" parent="1" source="Vmo0kVv--W6r2WOHqqZs-9" target="Vmo0kVv--W6r2WOHqqZs-11">
          <mxGeometry relative="1" as="geometry">
            <Array as="points">
              <mxPoint x="480" y="420" />
              <mxPoint x="480" y="430" />
            </Array>
          </mxGeometry>
        </mxCell>
        <mxCell id="Vmo0kVv--W6r2WOHqqZs-19" style="edgeStyle=orthogonalEdgeStyle;rounded=0;orthogonalLoop=1;jettySize=auto;html=1;exitX=1;exitY=0.5;exitDx=0;exitDy=0;entryX=0;entryY=0.5;entryDx=0;entryDy=0;" edge="1" parent="1" source="Vmo0kVv--W6r2WOHqqZs-9" target="Vmo0kVv--W6r2WOHqqZs-12">
          <mxGeometry relative="1" as="geometry">
            <Array as="points">
              <mxPoint x="480" y="420" />
              <mxPoint x="480" y="507" />
            </Array>
          </mxGeometry>
        </mxCell>
        <mxCell id="Vmo0kVv--W6r2WOHqqZs-9" value="Mede qual lado dos infra está menor, para alinhar na parede" style="rounded=1;whiteSpace=wrap;html=1;" vertex="1" parent="1">
          <mxGeometry x="330" y="385" width="140" height="70" as="geometry" />
        </mxCell>
        <mxCell id="Vmo0kVv--W6r2WOHqqZs-25" style="edgeStyle=orthogonalEdgeStyle;rounded=0;orthogonalLoop=1;jettySize=auto;html=1;exitX=1;exitY=0.5;exitDx=0;exitDy=0;entryX=0;entryY=0.5;entryDx=0;entryDy=0;" edge="1" parent="1" source="Vmo0kVv--W6r2WOHqqZs-11" target="Vmo0kVv--W6r2WOHqqZs-21">
          <mxGeometry relative="1" as="geometry" />
        </mxCell>
        <mxCell id="Vmo0kVv--W6r2WOHqqZs-11" value="Se distancia(1) &amp;lt; 25" style="rounded=1;whiteSpace=wrap;html=1;" vertex="1" parent="1">
          <mxGeometry x="510" y="400" width="120" height="60" as="geometry" />
        </mxCell>
        <mxCell id="Vmo0kVv--W6r2WOHqqZs-26" style="edgeStyle=orthogonalEdgeStyle;rounded=0;orthogonalLoop=1;jettySize=auto;html=1;exitX=1;exitY=0.5;exitDx=0;exitDy=0;entryX=0;entryY=0.5;entryDx=0;entryDy=0;" edge="1" parent="1" source="Vmo0kVv--W6r2WOHqqZs-12" target="Vmo0kVv--W6r2WOHqqZs-22">
          <mxGeometry relative="1" as="geometry" />
        </mxCell>
        <mxCell id="Vmo0kVv--W6r2WOHqqZs-12" value="Se distancia (2) &amp;lt; 25" style="rounded=1;whiteSpace=wrap;html=1;" vertex="1" parent="1">
          <mxGeometry x="510" y="477" width="120" height="60" as="geometry" />
        </mxCell>
        <mxCell id="Vmo0kVv--W6r2WOHqqZs-24" style="edgeStyle=orthogonalEdgeStyle;rounded=0;orthogonalLoop=1;jettySize=auto;html=1;exitX=1;exitY=0.5;exitDx=0;exitDy=0;entryX=0;entryY=0.5;entryDx=0;entryDy=0;" edge="1" parent="1" source="Vmo0kVv--W6r2WOHqqZs-13" target="Vmo0kVv--W6r2WOHqqZs-23">
          <mxGeometry relative="1" as="geometry" />
        </mxCell>
        <mxCell id="Vmo0kVv--W6r2WOHqqZs-13" value="Se (distancia(1) &amp;gt; 25 &amp;amp;&amp;amp; distancia(1) &amp;lt; 55) &amp;amp;&amp;amp; (distancia(2) &amp;gt; 25 &amp;amp;&amp;amp; distancia(2) &amp;lt; 55))&amp;nbsp;" style="rounded=1;whiteSpace=wrap;html=1;" vertex="1" parent="1">
          <mxGeometry x="500" y="297" width="140" height="83" as="geometry" />
        </mxCell>
        <mxCell id="Vmo0kVv--W6r2WOHqqZs-14" value="Meio" style="text;html=1;align=center;verticalAlign=middle;resizable=0;points=[];autosize=1;strokeColor=none;fillColor=none;" vertex="1" parent="1">
          <mxGeometry x="540" y="276" width="50" height="30" as="geometry" />
        </mxCell>
        <mxCell id="Vmo0kVv--W6r2WOHqqZs-15" value="Esquerda" style="text;html=1;align=center;verticalAlign=middle;resizable=0;points=[];autosize=1;strokeColor=none;fillColor=none;" vertex="1" parent="1">
          <mxGeometry x="535" y="380" width="70" height="30" as="geometry" />
        </mxCell>
        <mxCell id="Vmo0kVv--W6r2WOHqqZs-16" value="Direita" style="text;html=1;align=center;verticalAlign=middle;resizable=0;points=[];autosize=1;strokeColor=none;fillColor=none;" vertex="1" parent="1">
          <mxGeometry x="540" y="457" width="60" height="30" as="geometry" />
        </mxCell>
        <mxCell id="Vmo0kVv--W6r2WOHqqZs-31" style="edgeStyle=orthogonalEdgeStyle;rounded=0;orthogonalLoop=1;jettySize=auto;html=1;exitX=1;exitY=0.5;exitDx=0;exitDy=0;entryX=0;entryY=0.5;entryDx=0;entryDy=0;" edge="1" parent="1" source="Vmo0kVv--W6r2WOHqqZs-21" target="Vmo0kVv--W6r2WOHqqZs-27">
          <mxGeometry relative="1" as="geometry" />
        </mxCell>
        <mxCell id="Vmo0kVv--W6r2WOHqqZs-21" value="Então" style="rhombus;whiteSpace=wrap;html=1;" vertex="1" parent="1">
          <mxGeometry x="650" y="400" width="60" height="60" as="geometry" />
        </mxCell>
        <mxCell id="Vmo0kVv--W6r2WOHqqZs-32" style="edgeStyle=orthogonalEdgeStyle;rounded=0;orthogonalLoop=1;jettySize=auto;html=1;exitX=1;exitY=0.5;exitDx=0;exitDy=0;entryX=0;entryY=0.5;entryDx=0;entryDy=0;" edge="1" parent="1" source="Vmo0kVv--W6r2WOHqqZs-22" target="Vmo0kVv--W6r2WOHqqZs-28">
          <mxGeometry relative="1" as="geometry" />
        </mxCell>
        <mxCell id="Vmo0kVv--W6r2WOHqqZs-22" value="Então" style="rhombus;whiteSpace=wrap;html=1;" vertex="1" parent="1">
          <mxGeometry x="650" y="477" width="60" height="60" as="geometry" />
        </mxCell>
        <mxCell id="Vmo0kVv--W6r2WOHqqZs-30" style="edgeStyle=orthogonalEdgeStyle;rounded=0;orthogonalLoop=1;jettySize=auto;html=1;exitX=1;exitY=0.5;exitDx=0;exitDy=0;entryX=0;entryY=0.5;entryDx=0;entryDy=0;" edge="1" parent="1" source="Vmo0kVv--W6r2WOHqqZs-23" target="Vmo0kVv--W6r2WOHqqZs-29">
          <mxGeometry relative="1" as="geometry" />
        </mxCell>
        <mxCell id="Vmo0kVv--W6r2WOHqqZs-23" value="Então" style="rhombus;whiteSpace=wrap;html=1;" vertex="1" parent="1">
          <mxGeometry x="650" y="308.5" width="60" height="60" as="geometry" />
        </mxCell>
        <mxCell id="Vmo0kVv--W6r2WOHqqZs-27" value="Define a bool esquerda como TRUE" style="rounded=1;whiteSpace=wrap;html=1;" vertex="1" parent="1">
          <mxGeometry x="740" y="400" width="120" height="60" as="geometry" />
        </mxCell>
        <mxCell id="Vmo0kVv--W6r2WOHqqZs-28" value="Define a bool direita como TRUE" style="rounded=1;whiteSpace=wrap;html=1;" vertex="1" parent="1">
          <mxGeometry x="740" y="477" width="120" height="60" as="geometry" />
        </mxCell>
        <mxCell id="Vmo0kVv--W6r2WOHqqZs-29" value="Define a bool meio como TRUE" style="rounded=1;whiteSpace=wrap;html=1;" vertex="1" parent="1">
          <mxGeometry x="740" y="261" width="120" height="60" as="geometry" />
        </mxCell>
        <mxCell id="Vmo0kVv--W6r2WOHqqZs-34" value="Aqui ele faz a rotina parecido,&lt;br&gt;apenas faz espelhado as ações&lt;br&gt;pro lado que está definido" style="text;html=1;align=center;verticalAlign=middle;resizable=0;points=[];autosize=1;strokeColor=none;fillColor=none;" vertex="1" parent="1">
          <mxGeometry x="855" y="330" width="190" height="60" as="geometry" />
        </mxCell>
        <mxCell id="Vmo0kVv--W6r2WOHqqZs-35" value="bool meio = false;&lt;br&gt;bool esquerda = false;&lt;div&gt;bool direita = false;&lt;/div&gt;" style="rounded=1;whiteSpace=wrap;html=1;" vertex="1" parent="1">
          <mxGeometry x="500" y="160" width="140" height="80" as="geometry" />
        </mxCell>
      </root>
    </mxGraphModel>
  </diagram>
</mxfile>
